<svg width="11" height="16" viewBox="0 0 11 16" fill="none" xmlns="http://www.w3.org/2000/svg">
<path d="M5.49985 0C2.48188 0 0 2.36728 0 5.30609C0 5.76865 0.0564636 6.23121 0.197526 6.66663C0.282124 6.96595 0.395052 7.23815 0.507784 7.53747L0.959099 8.29937L5.5 16L10.0409 8.29937L10.4922 7.53747C10.6333 7.26528 10.746 6.96594 10.8025 6.66663C10.9152 6.23121 11 5.76867 11 5.30609C10.9998 2.39464 8.54587 0 5.49965 0H5.49985ZM5.49985 7.99995C3.8921 7.99995 2.62295 6.74816 2.62295 5.22441C2.62295 3.70066 3.92045 2.44887 5.49985 2.44887C7.1076 2.44887 8.37674 3.70066 8.37674 5.22441C8.37674 6.74816 7.1076 7.99995 5.49985 7.99995Z" fill="#494949"/>
</svg>
