<svg width="23" height="23" viewBox="0 0 23 23" fill="none" xmlns="http://www.w3.org/2000/svg">
<path fill-rule="evenodd" clip-rule="evenodd" d="M8.625 2.39583C5.18473 2.39583 2.39583 5.18473 2.39583 8.625C2.39583 12.0653 5.18473 14.8542 8.625 14.8542C12.0653 14.8542 14.8542 12.0653 14.8542 8.625C14.8542 5.18473 12.0653 2.39583 8.625 2.39583ZM1.4375 8.625C1.4375 4.65545 4.65545 1.4375 8.625 1.4375C12.5945 1.4375 15.8125 4.65545 15.8125 8.625C15.8125 12.5945 12.5945 15.8125 8.625 15.8125C4.65545 15.8125 1.4375 12.5945 1.4375 8.625Z" fill="#808080"/>
<path fill-rule="evenodd" clip-rule="evenodd" d="M13.7558 13.0779L20.9433 20.2654L20.2656 20.943L13.0781 13.7555L13.7558 13.0779Z" fill="#808080"/>
</svg>
