<svg width="13" height="13" viewBox="0 0 13 13" fill="none" xmlns="http://www.w3.org/2000/svg">
<path d="M6.5 0C2.9162 0 0 2.9162 0 6.5C0 10.0838 2.9162 13 6.5 13C10.0838 13 13 10.0838 13 6.5C13 2.9162 10.0838 0 6.5 0ZM8.79479 8.79479C8.72779 8.8619 8.64025 8.89473 8.55263 8.89473C8.465 8.89473 8.37747 8.86189 8.31046 8.79479L6.25783 6.74216C6.19349 6.67792 6.15789 6.5903 6.15789 6.49999V2.62321C6.15789 2.4344 6.31119 2.2811 6.49999 2.2811C6.6888 2.2811 6.8421 2.4344 6.8421 2.62321V6.35753L8.79479 8.31022C8.92756 8.44433 8.92756 8.66063 8.79479 8.79464L8.79479 8.79479Z" fill="#494949"/>
</svg>
