<svg width="524" height="103" viewBox="0 0 524 103" fill="none" xmlns="http://www.w3.org/2000/svg">
<mask id="path-1-inside-1_472_2399" fill="white">
<path fill-rule="evenodd" clip-rule="evenodd" d="M41.1449 17.8618C40.4166 17.8618 39.7459 17.466 39.394 16.8284L30.6741 1.03339C29.9134 -0.344463 27.9329 -0.344462 27.1723 1.03339L18.4524 16.8284C18.1004 17.466 17.4297 17.8618 16.7015 17.8618H2C0.895431 17.8618 0 18.7572 0 19.8618V100.862C0 101.966 0.895425 102.862 1.99999 102.862H522C523.105 102.862 524 101.966 524 100.862V19.8618C524 18.7572 523.105 17.8618 522 17.8618H41.1449Z"/>
</mask>
<path fill-rule="evenodd" clip-rule="evenodd" d="M41.1449 17.8618C40.4166 17.8618 39.7459 17.466 39.394 16.8284L30.6741 1.03339C29.9134 -0.344463 27.9329 -0.344462 27.1723 1.03339L18.4524 16.8284C18.1004 17.466 17.4297 17.8618 16.7015 17.8618H2C0.895431 17.8618 0 18.7572 0 19.8618V100.862C0 101.966 0.895425 102.862 1.99999 102.862H522C523.105 102.862 524 101.966 524 100.862V19.8618C524 18.7572 523.105 17.8618 522 17.8618H41.1449Z" fill="white"/>
<path d="M18.4524 16.8284L17.5769 16.3451L18.4524 16.8284ZM30.6741 1.03339L29.7986 1.51669L30.6741 1.03339ZM27.1723 1.03339L28.0477 1.51669L27.1723 1.03339ZM29.7986 1.51669L38.5185 17.3117L40.2694 16.3451L31.5495 0.550082L29.7986 1.51669ZM19.3278 17.3117L28.0477 1.51669L26.2968 0.550082L17.5769 16.3451L19.3278 17.3117ZM2 18.8618H16.7015V16.8618H2V18.8618ZM1 100.862V19.8618H-1V100.862H1ZM522 101.862H1.99999V103.862H522V101.862ZM523 19.8618V100.862H525V19.8618H523ZM41.1449 18.8618H522V16.8618H41.1449V18.8618ZM525 19.8618C525 18.205 523.657 16.8618 522 16.8618V18.8618C522.552 18.8618 523 19.3095 523 19.8618H525ZM522 103.862C523.657 103.862 525 102.519 525 100.862H523C523 101.414 522.552 101.862 522 101.862V103.862ZM-1 100.862C-1 102.519 0.343137 103.862 1.99999 103.862V101.862C1.44771 101.862 1 101.414 1 100.862H-1ZM2 16.8618C0.343146 16.8618 -1 18.205 -1 19.8618H1C1 19.3095 1.44772 18.8618 2 18.8618V16.8618ZM17.5769 16.3451C17.4009 16.6639 17.0656 16.8618 16.7015 16.8618V18.8618C17.7938 18.8618 18.7999 18.2681 19.3278 17.3117L17.5769 16.3451ZM38.5185 17.3117C39.0465 18.2681 40.0525 18.8618 41.1449 18.8618V16.8618C40.7807 16.8618 40.4454 16.6639 40.2694 16.3451L38.5185 17.3117ZM31.5495 0.550082C30.4085 -1.51669 27.4378 -1.51669 26.2968 0.550082L28.0477 1.51669C28.428 0.827768 29.4183 0.827769 29.7986 1.51669L31.5495 0.550082Z" fill="#C1C0C0" mask="url(#path-1-inside-1_472_2399)"/>
</svg>
