<svg width="24" height="24" viewBox="0 0 24 24" fill="none" xmlns="http://www.w3.org/2000/svg">
<circle cx="12" cy="12" r="11.5" fill="white" stroke="#C1C0C0"/>
<path d="M11.2058 9.5H12.7918V16H11.2058V9.5ZM12.0118 8.6615C11.7778 8.6615 11.5806 8.58567 11.4203 8.434C11.2599 8.278 11.1798 8.083 11.1798 7.849C11.1798 7.61933 11.2599 7.4265 11.4203 7.2705C11.5806 7.1145 11.7756 7.0365 12.0053 7.0365C12.2349 7.0365 12.4278 7.1145 12.5838 7.2705C12.7441 7.4265 12.8243 7.61933 12.8243 7.849C12.8243 8.083 12.7463 8.278 12.5903 8.434C12.4343 8.58567 12.2414 8.6615 12.0118 8.6615Z" fill="#C1C0C0"/>
</svg>
