<svg width="524" height="101" viewBox="0 0 524 101" fill="none" xmlns="http://www.w3.org/2000/svg">
<mask id="path-1-inside-1_468_2315" fill="white">
<path fill-rule="evenodd" clip-rule="evenodd" d="M504.622 15.724C503.893 15.724 503.223 15.3281 502.871 14.6906L495.331 1.03339C494.57 -0.344463 492.59 -0.344462 491.829 1.03339L484.29 14.6906C483.938 15.3281 483.267 15.724 482.539 15.724H2C0.89543 15.724 0 16.6194 0 17.724V98.724C0 99.8285 0.895425 100.724 1.99999 100.724H522C523.105 100.724 524 99.8285 524 98.724V17.724C524 16.6194 523.105 15.724 522 15.724H504.622Z"/>
</mask>
<path fill-rule="evenodd" clip-rule="evenodd" d="M504.622 15.724C503.893 15.724 503.223 15.3281 502.871 14.6906L495.331 1.03339C494.57 -0.344463 492.59 -0.344462 491.829 1.03339L484.29 14.6906C483.938 15.3281 483.267 15.724 482.539 15.724H2C0.89543 15.724 0 16.6194 0 17.724V98.724C0 99.8285 0.895425 100.724 1.99999 100.724H522C523.105 100.724 524 99.8285 524 98.724V17.724C524 16.6194 523.105 15.724 522 15.724H504.622Z" fill="white"/>
<path d="M484.29 14.6906L485.165 15.1739L484.29 14.6906ZM502.871 14.6906L501.995 15.1739L502.871 14.6906ZM495.331 1.03339L494.456 1.51669L495.331 1.03339ZM491.829 1.03339L492.705 1.51669L491.829 1.03339ZM494.456 1.51669L501.995 15.1739L503.746 14.2073L496.206 0.550081L494.456 1.51669ZM485.165 15.1739L492.705 1.51669L490.954 0.550082L483.414 14.2073L485.165 15.1739ZM2 16.724H482.539V14.724H2V16.724ZM1 98.724V17.724H-1V98.724H1ZM522 99.724H1.99999V101.724H522V99.724ZM523 17.724V98.724H525V17.724H523ZM504.622 16.724H522V14.724H504.622V16.724ZM525 17.724C525 16.0671 523.657 14.724 522 14.724V16.724C522.552 16.724 523 17.1717 523 17.724H525ZM522 101.724C523.657 101.724 525 100.381 525 98.724H523C523 99.2762 522.552 99.724 522 99.724V101.724ZM-1 98.724C-1 100.381 0.343137 101.724 1.99999 101.724V99.724C1.44771 99.724 1 99.2762 1 98.724H-1ZM2 14.724C0.343146 14.724 -1 16.0671 -1 17.724H1C1 17.1717 1.44772 16.724 2 16.724V14.724ZM483.414 14.2073C483.238 14.526 482.903 14.724 482.539 14.724V16.724C483.631 16.724 484.637 16.1302 485.165 15.1739L483.414 14.2073ZM501.995 15.1739C502.523 16.1302 503.529 16.724 504.622 16.724V14.724C504.257 14.724 503.922 14.526 503.746 14.2073L501.995 15.1739ZM496.206 0.550081C495.065 -1.51669 492.095 -1.51669 490.954 0.550082L492.705 1.51669C493.085 0.827769 494.075 0.827769 494.456 1.51669L496.206 0.550081Z" fill="#C1C0C0" mask="url(#path-1-inside-1_468_2315)"/>
</svg>
