<svg width="847" height="305" viewBox="0 0 847 305" fill="none" xmlns="http://www.w3.org/2000/svg">
<path d="M285.58 148.6V262H327.862C351.028 262 365.284 249.85 365.284 227.818C365.284 213.4 358.966 204.49 348.274 200.116C355.402 196.39 359.452 188.452 359.452 179.218C359.452 158.644 346.33 148.6 327.052 148.6H285.58ZM325.432 168.04C334.342 168.04 339.202 171.118 339.202 180.352C339.202 189.586 334.342 192.664 325.918 192.664H306.64V168.04H325.432ZM325.918 212.104C339.04 212.104 344.224 217.612 344.224 227.332C344.224 237.052 339.04 242.56 325.918 242.56H306.64V212.104H325.918ZM456.332 219.394C456.332 201.574 445.478 179.056 418.262 179.056C390.236 179.056 379.058 201.898 379.058 221.176C379.058 240.454 390.236 263.296 418.262 263.296C438.026 263.296 449.042 253.9 455.36 239.482L439.16 233.488C434.3 241.912 428.63 246.124 419.396 246.124C406.922 246.124 400.604 236.728 400.118 227.656H456.332V219.394ZM418.262 196.228C428.954 196.228 433.976 203.68 435.758 211.78H400.604C402.062 204.004 408.056 196.228 418.262 196.228ZM474.113 147.304V262H494.201V147.304H474.113ZM561.463 244.18C558.709 245.638 556.441 246.124 553.687 246.124C546.883 246.124 542.995 242.884 542.995 232.84V197.524H564.541V180.352H542.995V147.304L522.907 159.94V180.352H510.271V197.524H522.907V233.164C522.907 253.414 534.409 263.296 552.877 263.296C557.251 263.296 561.625 262.486 566.161 260.38L561.463 244.18ZM654.244 219.394C654.244 201.574 643.39 179.056 616.174 179.056C588.148 179.056 576.97 201.898 576.97 221.176C576.97 240.454 588.148 263.296 616.174 263.296C635.938 263.296 646.954 253.9 653.272 239.482L637.072 233.488C632.212 241.912 626.542 246.124 617.308 246.124C604.834 246.124 598.516 236.728 598.03 227.656H654.244V219.394ZM616.174 196.228C626.866 196.228 631.888 203.68 633.67 211.78H598.516C599.974 204.004 605.968 196.228 616.174 196.228ZM729.436 232.678C725.224 241.264 719.392 246.124 710.32 246.124C697.684 246.124 691.528 235.594 691.528 221.176C691.528 206.758 697.684 196.228 710.32 196.228C719.392 196.228 725.224 201.088 729.436 209.674L747.418 202.384C741.262 186.994 728.464 179.056 710.32 179.056C683.752 179.056 670.468 198.172 670.468 221.176C670.468 244.18 683.752 263.296 710.32 263.296C728.464 263.296 741.262 255.358 747.418 239.968L729.436 232.678ZM763.632 147.304V262H783.72V227.494C783.72 205.462 793.602 196.228 802.836 196.228C811.098 196.228 814.986 200.926 814.986 210.808V262H835.074V203.68C835.074 186.994 825.03 179.056 809.64 179.056C797.814 179.056 788.904 185.212 783.72 193.474V147.304H763.632Z" fill="#ffffff"/>
<path d="M0 292H79.5V61.4956L0 86.469V292Z" fill="#FCC500"/>
<path d="M141 292V81.9815L78 61.3386V292H141Z" fill="#F58706"/>
<path d="M78 292H152.092V138.629L78 155.246V292Z" fill="#50B590"/>
<path d="M214 292V152.26L150.626 138.525V292H214Z" fill="#237AFF"/>
<path d="M56.5 43.2778C70 34.3026 86.5 33.854 100 43.2778" stroke="#82A3C0" stroke-width="6" stroke-linecap="round" stroke-linejoin="round"/>
<path d="M44 32.5075C62 15.4547 94 15.9035 113 32.0588" stroke="#82A3C0" stroke-width="6" stroke-linecap="round" stroke-linejoin="round"/>
<path d="M31 20.8394C60.5 -3.3931 96.5 -2.49553 126 20.8394" stroke="#82A3C0" stroke-width="6" stroke-linecap="round" stroke-linejoin="round"/>
</svg>
